# xmcd
#
# Track frame offsets:
# 150
# 14276
# 25591
# 36971
# 46400
# 57266
# 70173
# 83220
# 96337
# 106867
# 119306
# 131257
# 141819
# 155320
# 164735
# 179633
# 200091
# 212019
# 226830
# 238931
#
# Disc length: 3307 seconds
#
#
# Revision: 1
# Processed by: cddbd v1.5.2PL0 Copyright (c) Steve Scherf et al.
# Submitted via: FreeRIP 2.96 
#
DISCID=160ce914
DTITLE=Various Artist - The Essential Country
DYEAR=2005
DGENRE=Country
TTITLE0=Can the Circle be Unbroken-The Carter Family
TTITLE1=A White Sport Coat (and a pink carnation)-Marty Robbins
TTITLE2=The Battle of New Orleans-Johnny Horton
TTITLE3=Rawhide-Frankie Lane
TTITLE4=He'll have to go-Jim Reeves
TTITLE5=Crazy-Willie Nelson
TTITLE6=Man in Black-Johnny Cash
TTITLE7=In the Jailhouse now-Jimmie Rodgers
TTITLE8=Foggy Mountain Breakdown-Lester Flatt and Earl Scruggs
TTITLE9=I'm Movin' On-Hank Snow
TTITLE10=New San Antonio Rose-Bob Willis and His Texas Playboys
TTITLE11=Flowers on the wall-The Statler Brothers
TTITLE12=Wolverton Mountain-Claude King
TTITLE13=Ballad of Easy Rider-The Byrds
TTITLE14=Lay Lady Lay-Bob Dylan
TTITLE15=Sunday Morning' Coming' Down-Kris Kristofferson
TTITLE16=The End of the World-Skeeter Davis
TTITLE17=He stopped loving her today-George Jones
TTITLE18=Stand By Your Man-Tammy Wynette
TTITLE19=Kiss an Angel Good Morning-Charley Pride
EXTD=
EXTT0=
EXTT1=
EXTT2=
EXTT3=
EXTT4=
EXTT5=
EXTT6=
EXTT7=
EXTT8=
EXTT9=
EXTT10=
EXTT11=
EXTT12=
EXTT13=
EXTT14=
EXTT15=
EXTT16=
EXTT17=
EXTT18=
EXTT19=
PLAYORDER=
